<svg width="25" height="24" viewBox="0 0 25 24" fill="none" xmlns="http://www.w3.org/2000/svg">
<path fill-rule="evenodd" clip-rule="evenodd" d="M15.3419 8.05798L13.497 13.832C13.3381 14.3292 12.876 14.6667 12.3539 14.6667H9.00709L7.4718 18.2704C7.28328 18.7129 6.84878 19 6.36781 19H3.5C2.94772 19 2.5 18.5523 2.5 18C2.5 17.4478 2.94772 17 3.5 17H5.83906L7.37436 13.3964C7.56287 12.9539 7.99737 12.6667 8.47834 12.6667H11.7697L14.1407 5.2464C14.4875 4.16093 16.0101 4.12471 16.4082 5.19248L19.1944 12.6667H21.5C22.0523 12.6667 22.5 13.1144 22.5 13.6667C22.5 14.219 22.0523 14.6667 21.5 14.6667L18.6389 14.6667C18.1378 14.6667 17.6895 14.3554 17.5145 13.8859L15.3419 8.05798Z" fill="white"/>
</svg>
