<svg width="25" height="24" viewBox="0 0 25 24" fill="none" xmlns="http://www.w3.org/2000/svg">
<path fill-rule="evenodd" clip-rule="evenodd" d="M5.5 10.25C5.5 9.69772 5.94772 9.25 6.5 9.25H12.5C13.0523 9.25 13.5 9.69772 13.5 10.25C13.5 10.8023 13.0523 11.25 12.5 11.25H6.5C5.94772 11.25 5.5 10.8023 5.5 10.25ZM6.5 12.75L12.5 12.75C13.0523 12.75 13.5 13.1977 13.5 13.75C13.5 14.3023 13.0523 14.75 12.5 14.75L6.5 14.75C5.94772 14.75 5.5 14.3023 5.5 13.75C5.5 13.1977 5.94772 12.75 6.5 12.75Z" fill="white"/>
<path fill-rule="evenodd" clip-rule="evenodd" d="M7.5 5C7.5 4.44772 7.94772 4 8.5 4L12.5 4C16.366 4 19.5 7.13401 19.5 11V13C19.5 16.866 16.366 20 12.5 20H8.5C7.94772 20 7.5 19.5523 7.5 19L7.5 5ZM9.5 6L9.5 18H12.5C15.2614 18 17.5 15.7614 17.5 13V11C17.5 8.23858 15.2614 6 12.5 6H9.5Z" fill="white"/>
</svg>
