<?xml version="1.0" encoding="UTF-8"?>
<svg width="1000" height="625" viewBox="0 0 1000 625" fill="none" xmlns="http://www.w3.org/2000/svg">
    <g>
        <animateTransform attributeName="transform" type="translate" values="0,0; 5.5556,-5.2083; -5.5556,5.2083; 0,0" dur="2s" repeatCount="indefinite"/>

       <!-- Candlestick Chart -->
<rect x="20" y="125" width="22.222" height="104.17" fill="#4CAF50"/>
<line x1="31.111" y1="83.333" x2="31.111" y2="250" stroke="#4CAF50" stroke-width="4.32"/>
<rect x="64.444" y="166.667" width="22.222" height="83.333" fill="#F44336"/>
<line x1="75.556" y1="145.833" x2="75.556" y2="229.167" stroke="#F44336" stroke-width="4.32"/>
<rect x="108.889" y="104.167" width="22.222" height="125" fill="#4CAF50"/>
<line x1="120" y1="62.5" x2="120" y2="250" stroke="#4CAF50" stroke-width="4.32"/>
<rect x="153.333" y="187.5" width="22.222" height="62.5" fill="#F44336"/>
<line x1="164.444" y1="166.667" x2="164.444" y2="229.167" stroke="#F44336" stroke-width="4.32"/>

<!-- Downward Trend Line with Dots Animation -->
<polyline points="20,104.167 170,187.5 320,145.833 471.111,208.333 620.556,166.667 908.889,229.167" fill="none" stroke="#FFD700" stroke-width="5.4">
    <animate attributeName="stroke-dasharray" from="0,948.889" to="948.889,0" dur="2s" repeatCount="indefinite"/>
</polyline>
<circle cx="20" cy="104.167" r="6.48" fill="#FFD700"/>
<circle cx="170" cy="187.5" r="6.48" fill="#FFD700"/>
<circle cx="320" cy="145.833" r="6.48" fill="#FFD700"/>
<circle cx="471.111" cy="208.333" r="6.48" fill="#FFD700"/>
<circle cx="620.556" cy="166.667" r="6.48" fill="#FFD700"/>
<circle cx="908.889" cy="229.167" r="8.64" fill="#FFD700"/>

        <!-- Moved & Scaled-Down Sign Up Icon to Top Right End -->
        <circle cx="855.556" cy="83.333" r="75.6" fill="#1E88E5"/>
        <circle cx="833.333" cy="41.667" r="21.6" fill="#fff"/>
        <rect x="800" y="57.292" width="66.667" height="72.917" fill="#fff" rx="16.2"/>

        <!-- Smaller Plus Sign Moved Further Left -->
        <circle cx="888.889" cy="72.917" r="21.6" fill="#fff"/>
        <line x1="888.889" y1="57.292" x2="888.889" y2="88.542" stroke="#1E88E5" stroke-width="7.56"/>
        <line x1="872.222" y1="72.917" x2="905.556" y2="72.917" stroke="#1E88E5" stroke-width="7.56"/>

        <!-- Buy/Sell Buttons -->
        <rect x="388.889" y="354.167" width="222.222" height="93.75" rx="21.6" fill="#4CAF50"/>
        <text x="450" y="410.417" fill="#fff" font-size="37.8" font-family="Arial" font-weight="bold">BUY</text>
        <rect x="388.889" y="479.167" width="222.222" height="93.75" rx="21.6" fill="#F44336"/>
        <text x="450" y="536.458" fill="#fff" font-size="37.8" font-family="Arial" font-weight="bold">SELL</text>

        <!-- Larger Secure Lock with Keyhole -->
        <polygon points="777.778,395.833 866.667,343.75 955.556,395.833 955.556,500 777.778,500" fill="#03A9F4"/>
        <circle cx="866.667" cy="416.667" r="27" fill="#fff"/>
        <rect x="855.556" y="416.667" width="22.222" height="26.042" fill="#000"/>

<!-- Full-Body Man Moved Further to Right -->
<rect x="123.889" y="416.667" width="144.444" height="93.75" fill="#D32F2F" rx="12.96"/>
<circle cx="68.333" cy="447.917" r="32.4" fill="#1976D2"/>
<rect x="46.111" y="479.167" width="44.444" height="72.917" fill="#1976D2"/>
<line x1="46.111" y1="552.083" x2="12.778" y2="593.75" stroke="#1976D2" stroke-width="8.64"/>
<line x1="90.556" y1="552.083" x2="123.889" y2="593.75" stroke="#1976D2" stroke-width="8.64"/>
<line x1="12.778" y1="593.75" x2="123.889" y2="593.75" stroke="#1976D2" stroke-width="8.64"/>

<!-- Writing Hand Animation -->
<line x1="90.556" y1="437.5" x2="135" y2="437.5" stroke="#000" stroke-width="4.32">
    <animate attributeName="y1" values="437.5;432.292;437.5" dur="1s" repeatCount="indefinite"/>
    <animate attributeName="y2" values="437.5;432.292;437.5" dur="1s" repeatCount="indefinite"/>
</line>

        <!-- "Sign Up" Text with Animated Effect -->
        <text x="755.556" y="593.75" fill="#000000" font-size="38.88" font-family="Arial" font-weight="bold" opacity="1">
            <animate attributeName="opacity" values="0;1;0" dur="2s" repeatCount="indefinite"/>
            Sign Up
        </text>

        <!-- Faint Bull & Bear Outline in Background -->
        <text x="0" y="312.5" fill="rgba(0, 0, 0, 0.49)" font-size="75.6" font-family="Arial" font-weight="bold">
            🐂 BULL
        </text>
        <text x="611.111" y="312.5" fill="rgba(0, 0, 0, 0.49)" font-size="75.6" font-family="Arial" font-weight="bold">
            🐻 BEAR
        </text>
    </g>
</svg>